<svg xmlns="http://www.w3.org/2000/svg" xmlns:xlink="http://www.w3.org/1999/xlink" viewBox="0 0 350 330">
  <g id="clouds">
    <animateTransform attributeName="transform" values="170 0; 40 0; 0 0" keyTimes="0; 0.4; 1" dur="0.5s" />
    <animateTransform attributeName="transform" begin="2s" values="0 0; 0 -50; 0 -100; 0 -170" keyTimes="0; 0.4; 0.7; 1" dur="0.5s" fill="freeze" />
    <animate attributeName="opacity" from="0" to="1" fill="freeze" dur="200ms" />
    <animate attributeName="opacity" begin="2s" from="1" to="0" fill="freeze" dur="300ms" />

    <g id="small-cloud">
      <path d="M85.22,67.45H57.86a12.4,12.4,0,1,0-24.8,0H15.13" fill="none" stroke="#fff" stroke-linecap="round" stroke-miterlimit="10" stroke-width="2"/>
      <line x1="65.43" y1="77.72" x2="105.21" y2="77.72" fill="none" stroke="#fff" stroke-linecap="round" stroke-miterlimit="10" stroke-width="2"/>
      <line x1="93.48" y1="67.45" x2="115.68" y2="67.45" fill="none" stroke="#fff" stroke-linecap="round" stroke-miterlimit="10" stroke-width="2"/>
    </g>
    
    <g id="big-cloud">
      <path d="M235.77,119H216.32a35.49,35.49,0,0,0-68-13.69A26.34,26.34,0,0,0,135.43,102a26.72,26.72,0,0,0-24.8,17H95.48a10.49,10.49,0,0,0,0,21h140.3a10.49,10.49,0,0,0,0-21" fill="#fff"/>
      <line x1="272.13" y1="145.27" x2="311.9" y2="145.27" fill="none" stroke="#fff" stroke-linecap="round" stroke-miterlimit="10" stroke-width="2"/>
      <line x1="300.17" y1="135" x2="322.37" y2="135" fill="none" stroke="#fff" stroke-linecap="round" stroke-miterlimit="10" stroke-width="2"/>
    </g>
  </g>

  <g style="transform-origin: 50% 100%;" id="big-leaf">
    <animateTransform attributeName="transform" type="skewX" values="0; -3; 0; -5; 0; -3; 0;" dur="2s" additive="sum" fill="freeze" repeatCount="indefinite" />
    <animateTransform attributeName="transform" type="skewY" values="0; 3; 0; 5; 0; 3; 0;" dur="2s"  additive="sum" fill="freeze" repeatCount="indefinite" />
    <path d="M263.47,206.82a2,2,0,0,1,3.15,2c-1,7-2.07,20.33,4.85,19.4,4.94-.66-16.65-31.53,19.32-38.16a2,2,0,0,1,2.18,2.89c-1.32,2.74-2.83,6.61-2.73,9.9a2,2,0,0,0,3.71,1c4.1-6.15,15.1-17.86,36.59-10.7a2,2,0,0,1,1.35,1.54c0.93,4.8,4.13,23.24-.29,28.72-5.09,6.31-15,4.14-16.18,10.25-1.3,6.91,7.51,4.82,13.42-.22a2,2,0,0,1,3.32,1.64c-0.25,5.45-2.18,14-11.12,18.69-13.78,7.21-23.48-7-25.19-3.88-2.59,4.66,7.94,8.47,13.78,10.18a2,2,0,0,1,.61,3.59c-10.52,7.74-29.13,10.28-37-5.41-8.3-16.59-12.93-12.49-18.19-20.38-5.71-8.57-4.33-22.54,8.38-31.05m29.4,32.47c0.5,2.73,5.2,3.51,8.35,2.94s8.47-3.83,8-6.56-6.62-3.9-9.78-3.33-7.05,4.22-6.55,6.95" fill="#e81a5a"/>
    <path d="M263,327.88s-4.91-70.27,5.54-80.72" fill="none" stroke="#e81a5a" stroke-miterlimit="10" stroke-width="2"/>
  </g>

  <g style="opacity: 0;" id="case">
    <animateMotion  begin="0.75s" dur="1.5s" fill="freeze" 
      path="M173.18718,95.189246,
c 4.89588,-1.511801 10.1058,-1.688829 15.18785,-1.983393 3.7305,-0.112822 9.07754,-0.153033 12.19322,2.318885 0.17808,0.141285 -0.74414,0.01323 -0.64607,0.218306 0.44016,0.920426 1.26571,1.600528 1.89856,2.400792 0.51813,0.912187 1.09641,1.792734 1.55438,2.736564 1.66078,3.42272 2.97326,7.9753 2.68798,11.81422 -0.0677,0.91126 -0.33041,1.79743 -0.49562,2.69614 -0.42928,0.83721 -0.70937,1.76964 -1.28786,2.51163 -2.77393,3.55796 -7.89719,5.05757 -12.02315,6.08823 -5.80231,1.44941 -9.73344,1.74477 -15.75756,2.50553 -12.54903,1.21034 -25.19294,1.2305 -37.76552,0.37775 -5.18949,-0.35199 -10.47352,-0.95062 -15.64933,-1.49396 -9.25617,-0.95386 -18.50406,-2.31618 -27.824384,-2.33412 -7.881634,0.55417 -14.284475,3.92437 -20.844755,8.03197 -5.310268,3.51641 -10.232356,7.5441 -14.611897,12.1639 -2.51681,2.69941 -4.431206,5.83364 -5.693319,9.29025 -1.243759,3.84532 -1.356025,7.92193 -1.511001,11.92563 -0.21828,4.38549 0.105141,8.79937 1.363356,13.02412 0.306535,1.02927 0.700684,2.03039 1.051026,3.04558 2.292585,5.66929 5.458142,10.97998 9.286625,15.74806 0.789875,0.98372 1.637713,1.91947 2.45657,2.87921 4.321218,4.78296 9.21265,9.03889 14.561357,12.63943 1.091864,0.735 2.223931,1.40843 3.335897,2.11265 8.750139,5.53093 18.383085,9.30378 27.883955,13.29332 11.67436,5.0132 23.59678,9.41058 35.5536,13.69432 14.80736,5.19959 29.74573,10.00871 44.59724,15.0801 9.19194,3.13154 18.23896,6.68427 26.89889,11.08513 4.48217,2.71932 8.5001,6.08721 12.29288,9.68989 2.56611,2.49219 4.80122,5.25175 6.79687,8.20952 0.76632,1.33997 1.45861,2.74356 1.98223,4.19894 0.0889,0.38154 0.0912,0.76943 -0.13727,1.09404 -0.009,0.005 -0.0179,0.009 -0.0268,0.0137 -0.0245,0.0574 -0.0489,0.11486 -0.0734,0.17229 0,0 3.30056,1.81485 3.30056,1.81485, -0.004,-0.004 -0.009,-0.008 -0.0131,-0.0126 0.0177,-0.0215 0.0355,-0.043 0.0532,-0.0646 0.28886,-0.4275 0.32833,-0.94205 0.25811,-1.44423 -0.50639,-1.50803 -1.29238,-2.9203 -2.02554,-4.32436 -2.06129,-3.00416 -4.33394,-5.82307 -6.9633,-8.36117 -5.40336,-5.15445 -11.32224,-9.62451 -18.00296,-13.0344 -8.57055,-4.29761 -17.51604,-7.75831 -26.60573,-10.79879 -14.8465,-5.0005 -29.77147,-9.76928 -44.52784,-15.03278 -12.02959,-4.35881 -24.02816,-8.81896 -35.77936,-13.89105 -7.56958,-3.18827 -15.23279,-6.21043 -22.427854,-10.20381 -1.114463,-0.69862 -2.249334,-1.3657 -3.343391,-2.09586 -5.349526,-3.57022 -10.239486,-7.80565 -14.570023,-12.55704 -0.820668,-0.95339 -1.670204,-1.88268 -2.462002,-2.86018 -3.823228,-4.71992 -6.994238,-9.9849 -9.261638,-15.62159 -0.344259,-1.00116 -0.731879,-1.98844 -1.032775,-3.00347 -1.240984,-4.18631 -1.559326,-8.55707 -1.3326,-12.9008 0.163501,-3.9583 0.303059,-7.98438 1.555164,-11.7796 1.219513,-3.41996 3.056732,-6.53658 5.503487,-9.23593 4.284953,-4.64929 9.156216,-8.67112 14.415802,-12.18374 1.090464,-0.68129 2.158303,-1.4002 3.271394,-2.04385 5.385563,-3.11424 11.253802,-5.42322 17.51289,-5.80587 9.167056,0.0129 18.277816,1.20364 27.393296,2.05486 5.0807,0.48454 10.3812,1.02909 15.46723,1.34224 12.59963,0.77576 25.25952,0.74073 37.83787,-0.37937 5.99617,-0.6896 10.27223,-0.99167 16.08414,-2.33929 4.20195,-0.97431 9.65444,-2.49416 12.50353,-6.08791 0.60507,-0.76322 0.89801,-1.72859 1.34701,-2.59288 0.17284,-0.92205 0.44719,-1.83075 0.5185,-2.76615 0.29509,-3.87108 -1.02204,-8.50439 -2.65314,-11.97698 -0.44899,-0.9559 -1.01584,-1.85187 -1.52377,-2.777802 -0.61901,-0.819897 -1.08064,-1.786911 -1.85702,-2.45969 -1.60257,-1.388712 -5.25241,-3.984116 -7.75927,-4.856618 -3.08642,-1.074212 -6.4206,-1.017834 -9.63171,-0.892467 -5.20215,0.29887 -10.47743,0.519138 -15.54476,1.827983
"
    />
    <animate attributeName="opacity" begin="0.9s" from="0" to="1" fill="freeze" dur="50ms" />
    <animateTransform attributeName="transform" begin="0.9s" type="scale" values="0.1 0.1; 0.3 0.3; 0.7 0.7; 1 1" dur="1.5s"  fill="freeze" additive="sum" />
    <animateTransform attributeName="transform" begin="0.9s" type="rotate" values="45; -30; 30; -15; 0" dur="1.5s"  fill="freeze" additive="sum" />
    <animateTransform attributeName="transform" begin="0.9s" values="-100 -350; -150 -93" dur="1.5s"  fill="freeze" additive="sum" />
    <path d="M251.89,328.88a3.54,3.54,0,0,0,3.53-3.53v-5.07a3.53,3.53,0,1,0-7.06,0v5.07a3.55,3.55,0,0,0,3.53,3.53" fill="#a67ee5"/>
    <path d="M251.89,328.88a3.54,3.54,0,0,0,3.53-3.53v-5.07a3.53,3.53,0,1,0-7.06,0v5.07A3.55,3.55,0,0,0,251.89,328.88Z" fill="none" stroke="#fff" stroke-miterlimit="10" stroke-width="2"/>
    <path d="M176.35,328.88a3.54,3.54,0,0,0,3.53-3.53v-5.07a3.53,3.53,0,1,0-7.06,0v5.07a3.54,3.54,0,0,0,3.53,3.53" fill="#a67ee5"/>
    <path d="M176.35,328.88a3.54,3.54,0,0,0,3.53-3.53v-5.07a3.53,3.53,0,1,0-7.06,0v5.07A3.54,3.54,0,0,0,176.35,328.88Z" fill="none" stroke="#fff" stroke-miterlimit="10" stroke-width="2"/>
    <path d="M170.92,320.29h74.5a11.38,11.38,0,0,0,11.35-11.35V242.86a11.38,11.38,0,0,0-11.35-11.35h-74.5a11.38,11.38,0,0,0-11.35,11.35v66.08a11.38,11.38,0,0,0,11.35,11.35" fill="#a67ee5"/>
    <rect x="159.57" y="231.51" width="97.2" height="88.78" rx="11.35" ry="11.35" fill="none" stroke="#fff" stroke-miterlimit="10" stroke-width="2"/>
    <path d="M199.26,219.15h32.4a4.09,4.09,0,0,1,4.08,4.08v16a1.19,1.19,0,0,1-1.19,1.19h-2.7a1.19,1.19,0,0,1-1.19-1.19V224.86a1.27,1.27,0,0,0-1.27-1.27H201.53a1.27,1.27,0,0,0-1.27,1.27v14.38a1.19,1.19,0,0,1-1.19,1.19h-2.7a1.19,1.19,0,0,1-1.19-1.19v-16a4.1,4.1,0,0,1,4.09-4.08" fill="#a67ee5"/>
    <path d="M199.26,219.15h32.4a4.09,4.09,0,0,1,4.08,4.08v16a1.19,1.19,0,0,1-1.19,1.19h-2.7a1.19,1.19,0,0,1-1.19-1.19V224.86a1.27,1.27,0,0,0-1.27-1.27H201.53a1.27,1.27,0,0,0-1.27,1.27v14.38a1.19,1.19,0,0,1-1.19,1.19h-2.7a1.19,1.19,0,0,1-1.19-1.19v-16A4.1,4.1,0,0,1,199.26,219.15Z" fill="none" stroke="#fff" stroke-miterlimit="10" stroke-width="2"/>
    <path d="M185.34,320.29h74.5a11.38,11.38,0,0,0,11.35-11.35V242.86a11.38,11.38,0,0,0-11.35-11.35h-74.5A11.38,11.38,0,0,0,174,242.86v66.08a11.39,11.39,0,0,0,11.35,11.35" fill="#a67ee5"/>
    <path d="M185.34,320.29h74.5a11.38,11.38,0,0,0,11.35-11.35V242.86a11.38,11.38,0,0,0-11.35-11.35h-74.5A11.38,11.38,0,0,0,174,242.86v66.08A11.39,11.39,0,0,0,185.34,320.29Z" fill="none" stroke="#fff" stroke-miterlimit="10" stroke-width="2"/>
    <line x1="254.22" y1="252.43" x2="190.97" y2="252.43" fill="none" stroke="#fff" stroke-linecap="round" stroke-miterlimit="10" stroke-width="2"/>
    <line x1="254.22" y1="275.9" x2="190.97" y2="275.9" fill="none" stroke="#fff" stroke-linecap="round" stroke-miterlimit="10" stroke-width="2"/>
    <line x1="254.22" y1="299.38" x2="190.97" y2="299.38" fill="none" stroke="#fff" stroke-linecap="round" stroke-miterlimit="10" stroke-width="2"/>
    <path d="M168.12,253.68h0.67v44.46h-0.67a3.53,3.53,0,0,1-3.52-3.51V257.2a3.52,3.52,0,0,1,3.52-3.52" fill="#a67ee5"/>
    <path d="M168.12,253.68h0.67v44.46h-0.67a3.53,3.53,0,0,1-3.52-3.51V257.2A3.52,3.52,0,0,1,168.12,253.68Z" fill="none" stroke="#fff" stroke-miterlimit="10" stroke-width="2"/>
    <line x1="215.46" y1="218.86" x2="159.87" y2="139.03" fill="none" stroke="#fff" stroke-linecap="round" stroke-linejoin="round" stroke-width="2"/>
    <line x1="215.46" y1="218.86" x2="196.93" y2="139.03" fill="none" stroke="#fff" stroke-linecap="round" stroke-linejoin="round" stroke-width="2"/>
    <line x1="233.99" y1="139.03" x2="215.46" y2="218.86" fill="none" stroke="#fff" stroke-linecap="round" stroke-linejoin="round" stroke-width="2"/>
    <line x1="271.04" y1="139.03" x2="215.46" y2="218.86" fill="none" stroke="#fff" stroke-linecap="round" stroke-linejoin="round" stroke-width="2"/>
    <g>
      <path d="M215.46,83.44A55.58,55.58,0,0,1,271,139c0-6.76-8.3-12.25-18.53-12.25s-18.31,5.35-18.52,12c0,0.08,0,.17,0,0.26,0-6.76-8.3-12.25-18.53-12.25s-18.54,5.49-18.54,12.25c0-.09,0-0.17,0-0.26-0.22-6.64-8.42-12-18.52-12s-18.52,5.49-18.52,12.25a55.58,55.58,0,0,1,55.59-55.59m0-1.66A57.31,57.31,0,0,0,158.22,139a1.66,1.66,0,1,0,3.32,0c0-5.84,7.57-10.59,16.87-10.59,9.11,0,16.68,4.66,16.86,10.38V139a1.66,1.66,0,0,0,3.32,0c0-5.84,7.57-10.59,16.87-10.59s16.87,4.75,16.87,10.59a1.66,1.66,0,0,0,3.32,0v-0.21c0.18-5.73,7.74-10.39,16.86-10.39,9.3,0,16.87,4.75,16.87,10.59a1.66,1.66,0,1,0,3.32,0,57.3,57.3,0,0,0-57.23-57.25" fill="#fff"/>
      <path d="M215.46,83.44c9.92,0,18,20.9,18.54,55.33,0.21-6.65,8.41-12,18.52-12S271,132.27,271,139a55.59,55.59,0,0,0-55.59-55.59" fill="#e81a5a"/>
      <path d="M215.45,83.44A55.58,55.58,0,0,0,159.87,139c0-6.76,8.3-12.25,18.52-12.25s18.3,5.35,18.52,12c0.52-34.43,8.61-55.32,18.53-55.32" fill="#fe6183"/>
      <path d="M215.46,83.44c-9.93,0-18,20.9-18.54,55.32,0,0.09,0,.17,0,0.26,0-6.76,8.3-12.25,18.53-12.25S234,132.27,234,139c0-.09,0-0.17,0-0.26-0.51-34.43-8.6-55.33-18.52-55.33" fill="#f7396b"/>
    </g>
  </g>

  <g style="transform-origin: 50% 100%;" id="small-leaf">
    <animateTransform attributeName="transform" begin="0.3s" type="skewX" values="0; -4; 0; -2; 0; -2; 0" dur="2s" additive="sum" fill="freeze" repeatCount="indefinite" />
    <animateTransform attributeName="transform" begin="0.3s" type="skewY" values="0; 4; 0; 2; 0; 2; 0" dur="2s"  additive="sum" fill="freeze" repeatCount="indefinite" />
    <path d="M322.92,283.4a2.14,2.14,0,0,1,.55,2.17c-1.06,3.43-4.58,12.85-12.1,16.34-5.13,2.38-8.33-2.7-10.92.77s2.1,5,6.92,4.31a2.16,2.16,0,0,1,2.14,3.34A14.34,14.34,0,0,1,297.78,317c-10.84.27-12.55-11.58-14.57-10.19-2.72,1.89,1.27,6.55,4.39,9.57a2.16,2.16,0,0,1-1.3,3.71c-8.76.84-19.72-3.51-19.8-15-0.08-12.94-4.25-11.8-5.11-18.35-0.91-6.88,3.88-14.88,13.74-16.69a2.16,2.16,0,0,1,2.31,3.11c-2.41,4.73-6,12.6-2.82,12.56,3.46,0-1.58-22.58,28.43-15.26a2.16,2.16,0,0,1,1.09,3.54l-0.1.11a2.16,2.16,0,0,0,2.41,3.45c3.66-1.52,9.16-1.27,16.47,5.84" fill="#fe6183"/>
    <path d="M245.13,327.88s3.48-30.11,21.7-30.11" fill="none" stroke="#fe6183" stroke-miterlimit="10" stroke-width="2"/>
  </g>

  <g style="transform-origin: -50% -100%;" id="bottom">
    <animateTransform attributeName="transform" values="-100; 0" dur="0.4s" />
    <line x1="41.13" y1="329" x2="319.13" y2="329" fill="none" stroke="#fff" stroke-width="2"> 
        <animate begin="0.4s" attributeName="x1" values="41.13; 70; 120" dur="0.4s" fill="freeze" />
    </line>
  </g>
</svg>
